<svg xmlns="http://www.w3.org/2000/svg" width="24" height="24" viewBox="0 0 24 24">
  <g fillRule="evenodd">
    <path d="M14.5 4a.5.5 0 0 1 .5.5v3a.5.5 0 0 1-.5.5H13a.5.5 0 0 1-.5-.5v-1H9.75v11h1.75a.5.5 0 0 1 .5.5v1.5a.5.5 0 0 1-.5.5h-6a.5.5 0 0 1-.5-.5V18a.5.5 0 0 1 .5-.5h1.75v-11H4.5v1A.5.5 0 0 1 4 8H2.5a.5.5 0 0 1-.5-.5v-3a.5.5 0 0 1 .5-.5h12z"/>
    <path fill="#E13B3B" d="M21.86 13.813a.476.476 0 0 1 0 .673L19.847 16.5l2.015 2.014a.476.476 0 0 1 0 .673l-.674.674a.476.476 0 0 1-.673 0L18.5 17.846l-2.014 2.015a.476.476 0 0 1-.673 0l-.674-.674a.476.476 0 0 1 0-.673l2.015-2.014-2.015-2.014a.476.476 0 0 1 0-.673l.674-.674a.476.476 0 0 1 .673 0l2.014 2.015 2.014-2.015a.476.476 0 0 1 .673 0l.674.674z"/>
  </g>
</svg>
