<svg xmlns="http://www.w3.org/2000/svg" viewBox="0 0 24 24" width="24px" height="24px">
  <g id="Icons-/-Text-edit-/-Image-fluid" stroke="none" stroke-width="1" fillRule="evenodd">
    <path d="M19.5,19 C19.7761424,19 20,19.2238576 20,19.5 L20,20.5 C20,20.7761424 19.7761424,21 19.5,21 L4.5,21 C4.22385763,21 4,20.7761424 4,20.5 L4,19.5 C4,19.2238576 4.22385763,19 4.5,19 L19.5,19 Z M17,7 C17.5522847,7 18,7.44771525 18,8 L18,16 C18,16.5522847 17.5522847,17 17,17 L7,17 C6.44771525,17 6,16.5522847 6,16 L6,8 C6,7.44771525 6.44771525,7 7,7 L17,7 Z M19.5,3 C19.7761424,3 20,3.22385763 20,3.5 L20,4.5 C20,4.77614237 19.7761424,5 19.5,5 L4.5,5 C4.22385763,5 4,4.77614237 4,4.5 L4,3.5 C4,3.22385763 4.22385763,3 4.5,3 L19.5,3 Z" id="Shape"/>
  </g>
</svg>
