<svg xmlns="http://www.w3.org/2000/svg" viewBox="0 0 24 24" width="24px" height="24px">
  <g id="Icons-/-Text-edit-/-Image-centered" stroke="none" stroke-width="1" fillRule="evenodd">
    <path d="M19.5,19 C19.7761424,19 20,19.2238576 20,19.5 L20,20.5 C20,20.7761424 19.7761424,21 19.5,21 L4.5,21 C4.22385763,21 4,20.7761424 4,20.5 L4,19.5 C4,19.2238576 4.22385763,19 4.5,19 L19.5,19 Z M15,7 C15.5522847,7 16,7.44771525 16,8 L16,16 C16,16.5522847 15.5522847,17 15,17 L5,17 C4.44771525,17 4,16.5522847 4,16 L4,8 C4,7.44771525 4.44771525,7 5,7 L15,7 Z M19.5,3 C19.7761424,3 20,3.22385763 20,3.5 L20,4.5 C20,4.77614237 19.7761424,5 19.5,5 L4.5,5 C4.22385763,5 4,4.77614237 4,4.5 L4,3.5 C4,3.22385763 4.22385763,3 4.5,3 L19.5,3 Z" id="Shape"/>
  </g>
</svg>
