<svg xmlns="http://www.w3.org/2000/svg" viewBox="0 0 24 24" width="24px" height="24px">
  <g id="Icons-/-Text-edit-/-Image-left" stroke="none" stroke-width="1" fillRule="evenodd">
    <path d="M19.5,19 C19.7761424,19 20,19.2238576 20,19.5 L20,20.5 C20,20.7761424 19.7761424,21 19.5,21 L4.5,21 C4.22385763,21 4,20.7761424 4,20.5 L4,19.5 C4,19.2238576 4.22385763,19 4.5,19 L19.5,19 Z M12,7 C12.5522847,7 13,7.44771525 13,8 L13,16 C13,16.5522847 12.5522847,17 12,17 L5,17 C4.44771525,17 4,16.5522847 4,16 L4,8 C4,7.44771525 4.44771525,7 5,7 L12,7 Z M19.5,15 C19.7761424,15 20,15.2238576 20,15.5 L20,16.5 C20,16.7761424 19.7761424,17 19.5,17 L15.5,17 C15.2238576,17 15,16.7761424 15,16.5 L15,15.5 C15,15.2238576 15.2238576,15 15.5,15 L19.5,15 Z M19.5,11 C19.7761424,11 20,11.2238576 20,11.5 L20,12.5 C20,12.7761424 19.7761424,13 19.5,13 L15.5,13 C15.2238576,13 15,12.7761424 15,12.5 L15,11.5 C15,11.2238576 15.2238576,11 15.5,11 L19.5,11 Z M19.5,7 C19.7761424,7 20,7.22385763 20,7.5 L20,8.5 C20,8.77614237 19.7761424,9 19.5,9 L15.5,9 C15.2238576,9 15,8.77614237 15,8.5 L15,7.5 C15,7.22385763 15.2238576,7 15.5,7 L19.5,7 Z M19.5,3 C19.7761424,3 20,3.22385763 20,3.5 L20,4.5 C20,4.77614237 19.7761424,5 19.5,5 L4.5,5 C4.22385763,5 4,4.77614237 4,4.5 L4,3.5 C4,3.22385763 4.22385763,3 4.5,3 L19.5,3 Z" id="Shape"/>
  </g>
</svg>
