<svg xmlns="http://www.w3.org/2000/svg" viewBox="0 0 24 24" width="24" height="24">
  <g fillRule="evenodd">
    <path d="M13.5 4a.5.5 0 0 1 .5.5v3a.5.5 0 0 1-.5.5H12a.5.5 0 0 1-.5-.5v-1H9.25v11h1.25a.5.5 0 0 1 .5.5v1.5a.5.5 0 0 1-.5.5h-5a.5.5 0 0 1-.5-.5V18a.5.5 0 0 1 .5-.5h1.25v-11H4.5v1A.5.5 0 0 1 4 8H2.5a.5.5 0 0 1-.5-.5v-3a.5.5 0 0 1 .5-.5h11z"/>
    <path d="M16 12.5a.5.5 0 0 1-.5.5h-1a.5.5 0 0 1-.5-.5v-2a.5.5 0 0 1 .5-.5h7a.5.5 0 0 1 .5.5v2a.5.5 0 0 1-.5.5h-1a.5.5 0 0 1-.5-.5V12h-1v6h.5a.5.5 0 0 1 .5.5v1a.5.5 0 0 1-.5.5h-3a.5.5 0 0 1-.5-.5v-1a.5.5 0 0 1 .5-.5h.5v-6h-1v.5z"/>
  </g>
</svg>
