<svg xmlns="http://www.w3.org/2000/svg" width="24" height="24" viewBox="0 0 24 24">
  <g fillRule="evenodd">
    <path fillRule="evenodd" d="M4 4a1 1 0 0 1 1 1v5h6V5a1 1 0 0 1 1-1h1a1 1 0 0 1 1 1v14a1 1 0 0 1-1 1h-1a1 1 0 0 1-1-1v-6H5v6a1 1 0 0 1-1 1H3a1 1 0 0 1-1-1V5a1 1 0 0 1 1-1h1z"/>
    <path fill="#312E55" fillRule="nonzero" d="M18.474 13.422v1.092h-1.86v-1.352c0-.953.546-1.43 1.639-1.43h1.404c1.109 0 1.663.477 1.663 1.43v1.053c0 .399-.058.743-.175 1.034-.117.29-.305.608-.566.955l-1.663 2.431h2.43V20h-4.692v-1.261l2.288-3.068c.216-.269.361-.507.435-.715.074-.208.11-.464.11-.767v-.767c0-.217-.116-.325-.35-.325h-.326c-.225 0-.337.108-.337.325z"/>
  </g>
</svg>
