<svg xmlns="http://www.w3.org/2000/svg" width="24" height="24" viewBox="0 0 24 24">
  <g fillRule="evenodd">
    <path fillRule="evenodd" d="M4 4a1 1 0 0 1 1 1v5h6V5a1 1 0 0 1 1-1h1a1 1 0 0 1 1 1v14a1 1 0 0 1-1 1h-1a1 1 0 0 1-1-1v-6H5v6a1 1 0 0 1-1 1H3a1 1 0 0 1-1-1V5a1 1 0 0 1 1-1h1z"/>
    <path fill="#312E55" fillRule="nonzero" d="M18.395 13.422v.975H16.55v-1.235c0-.953.546-1.43 1.639-1.43h1.443c1.1 0 1.65.477 1.65 1.43v1.417c0 .641-.194 1.044-.584 1.209.39.147.585.52.585 1.118v1.651c0 .962-.55 1.443-1.651 1.443h-1.444c-1.092 0-1.638-.481-1.638-1.443v-1.209h1.846v.962c0 .217.117.325.352.325h.35c.235 0 .351-.108.351-.325v-1.534c0-.121-.025-.206-.078-.253-.052-.048-.142-.072-.273-.072h-1.014v-1.287h1.015c.13 0 .22-.024.273-.072.052-.047.078-.127.078-.24v-1.43c0-.217-.117-.325-.352-.325h-.35c-.235 0-.352.108-.352.325z"/>
  </g>
</svg>
