<svg xmlns="http://www.w3.org/2000/svg" width="24" height="24" viewBox="0 0 24 24">
  <g fillRule="evenodd">
    <path fillRule="evenodd" d="M4 4a1 1 0 0 1 1 1v5h6V5a1 1 0 0 1 1-1h1a1 1 0 0 1 1 1v14a1 1 0 0 1-1 1h-1a1 1 0 0 1-1-1v-6H5v6a1 1 0 0 1-1 1H3a1 1 0 0 1-1-1V5a1 1 0 0 1 1-1h1z"/>
    <path fill="#312E55" fillRule="nonzero" d="M18.538 14.657h1.288c1.1 0 1.65.477 1.65 1.43v2.47c0 .962-.55 1.443-1.65 1.443h-1.547c-1.101 0-1.651-.481-1.651-1.443v-1.352h1.858v1.105c0 .217.117.325.351.325h.456c.234 0 .35-.108.35-.325v-1.963c0-.217-.116-.325-.35-.325h-2.587v-4.29h4.68v1.365h-2.848v1.56z"/>
  </g>
</svg>
