<svg xmlns="http://www.w3.org/2000/svg" width="24" height="24" viewBox="0 0 24 24">
  <g fillRule="evenodd">
    <path fillRule="evenodd" d="M4 4a1 1 0 0 1 1 1v5h6V5a1 1 0 0 1 1-1h1a1 1 0 0 1 1 1v14a1 1 0 0 1-1 1h-1a1 1 0 0 1-1-1v-6H5v6a1 1 0 0 1-1 1H3a1 1 0 0 1-1-1V5a1 1 0 0 1 1-1h1z"/>
    <path fill="#312E55" fillRule="nonzero" d="M19.747 11.732c1.101 0 1.651.477 1.651 1.43v1.118h-1.82v-.858c0-.217-.116-.325-.35-.325h-.469c-.225 0-.337.108-.337.325v1.703h1.416c1.101 0 1.651.477 1.651 1.43v2.002c0 .962-.55 1.443-1.65 1.443h-1.586c-1.101 0-1.651-.481-1.651-1.443v-5.395c0-.953.55-1.43 1.65-1.43h1.495zm-.428 4.706h-.897v1.872c0 .217.112.325.337.325h.56c.234 0 .35-.108.35-.325v-1.547c0-.217-.116-.325-.35-.325z"/>
  </g>
</svg>
