<svg xmlns="http://www.w3.org/2000/svg" width="24" height="24" viewBox="0 0 24 24">
  <g stroke-width="1" fillRule="evenodd">
    <path d="M18 2.75C19.733 2.75 21.149 4.106 21.245 5.816L21.25 6 21.25 18C21.25 19.733 19.894 21.149 18.184 21.245L18 21.25 6 21.25C4.267 21.25 2.851 19.894 2.755 18.184L2.75 18 2.75 6C2.75 4.267 4.106 2.851 5.816 2.755L6 2.75 18 2.75zM18 5.25L6 5.25C5.62 5.25 5.307 5.532 5.257 5.898L5.25 6 5.25 18C5.25 18.38 5.532 18.693 5.898 18.743L6 18.75 9.448 18.75 14.21 13.295C14.876 12.532 15.962 12.313 16.864 12.739L17.022 12.821 18.75 13.808 18.75 6C18.75 5.62 18.468 5.307 18.102 5.257L18 5.25zM15.958 15.092L12.765 18.75 18 18.75C18.38 18.75 18.693 18.468 18.743 18.102L18.75 18 18.75 16.687 15.958 15.092zM10 7C11.657 7 13 8.343 13 10 13 11.657 11.657 13 10 13 8.343 13 7 11.657 7 10 7 8.343 8.343 7 10 7zM10 9C9.448 9 9 9.448 9 10 9 10.552 9.448 11 10 11 10.552 11 11 10.552 11 10 11 9.448 10.552 9 10 9z" id="Shape" fillRule="nonzero"/>
  </g>
</svg>
