<svg xmlns="http://www.w3.org/2000/svg" width="24" height="24" viewBox="0 0 24 24">
  <g fillRule="evenodd">
    <path d="M6 19.482c0 .286-.24.518-.535.518a.545.545 0 0 1-.352-.128l-2.93-2.482a.506.506 0 0 1-.05-.73l.05-.05 2.93-2.482a.547.547 0 0 1 .755.049.508.508 0 0 1 .132.34V16h12v-1.482c0-.286.24-.518.535-.518.13 0 .254.046.352.128l2.93 2.482a.506.506 0 0 1 .05.73l-.05.05-2.93 2.482a.547.547 0 0 1-.755-.049.508.508 0 0 1-.132-.34V18H6v1.482z"/>
    <path d="M10 6.5a.5.5 0 0 1-.5.5h-1a.5.5 0 0 1-.5-.5v-2a.5.5 0 0 1 .5-.5h7a.5.5 0 0 1 .5.5v2a.5.5 0 0 1-.5.5h-1a.5.5 0 0 1-.5-.5V6h-1v6h.5a.5.5 0 0 1 .5.5v1a.5.5 0 0 1-.5.5h-3a.5.5 0 0 1-.5-.5v-1a.5.5 0 0 1 .5-.5h.5V6h-1v.5z"/>
  </g>
</svg>
