<svg width="24" height="24" viewBox="0 0 24 24">
  <path fillRule="evenodd" d="M5.34 4.132l.05.05 2.482 2.931a.547.547 0 0 1-.049.755.508.508 0 0 1-.34.132H6l-.001 8h1.483c.286 0 .518.24.518.535 0 .13-.046.254-.128.352l-2.482 2.93a.506.506 0 0 1-.73.05l-.05-.05-2.482-2.93a.547.547 0 0 1 .049-.755.508.508 0 0 1 .34-.132H4L4 8H2.518A.526.526 0 0 1 2 7.465c0-.13.046-.254.128-.352l2.482-2.93a.506.506 0 0 1 .73-.05zM21.5 17a.5.5 0 0 1 .5.5v1a.5.5 0 0 1-.5.5h-10a.5.5 0 0 1-.5-.5v-1a.5.5 0 0 1 .5-.5h10zm0-4a.5.5 0 0 1 .5.5v1a.5.5 0 0 1-.5.5h-10a.5.5 0 0 1-.5-.5v-1a.5.5 0 0 1 .5-.5h10zm0-4a.5.5 0 0 1 .5.5v1a.5.5 0 0 1-.5.5h-10a.5.5 0 0 1-.5-.5v-1a.5.5 0 0 1 .5-.5h10zm0-4a.5.5 0 0 1 .5.5v1a.5.5 0 0 1-.5.5h-10a.5.5 0 0 1-.5-.5v-1a.5.5 0 0 1 .5-.5h10z"/>
</svg>
