<svg xmlns="http://www.w3.org/2000/svg" width="24" height="24" viewBox="0 0 24 24">
  <path fillRule="nonzero" d="M19.743 4.876a.876.876 0 0 1 0 1.239l-1.858 1.858.31.31a4.38 4.38 0 0 1 0 6.195l-3.717 3.717a4.38 4.38 0 0 1-6.195 0l-.31-.31-1.858 1.858a.876.876 0 0 1-1.239 0l-.62-.62a.876.876 0 0 1 0-1.238l1.859-1.858-.31-.31a4.38 4.38 0 0 1 0-6.195l3.717-3.717a4.38 4.38 0 0 1 6.195 0l.31.31 1.858-1.858a.876.876 0 0 1 1.239 0l.62.62zm-3.407 5.266l-.31-.31-1.238 1.239a.876.876 0 0 1-1.24 0l-.619-.62a.876.876 0 0 1 0-1.239l1.24-1.239-.31-.31a1.752 1.752 0 0 0-2.478 0l-3.717 3.718a1.752 1.752 0 0 0 0 2.477l.31.31 1.238-1.239a.876.876 0 0 1 1.24 0l.619.62a.876.876 0 0 1 0 1.239l-1.24 1.239.31.31a1.752 1.752 0 0 0 2.478 0l3.717-3.718a1.752 1.752 0 0 0 0-2.477z"/>
</svg>
