<svg xmlns="http://www.w3.org/2000/svg" width="24" height="24" viewBox="0 0 24 24">
  <path fillRule="evenodd" d="M21.3 17c.387 0 .7.376.7.84v1.32c0 .464-.313.84-.7.84H8.7c-.387 0-.7-.376-.7-.84v-1.32c0-.464.313-.84.7-.84zM3.5 17a1.5 1.5 0 1 1 0 3 1.5 1.5 0 0 1 0-3zm17.8-6.5c.387 0 .7.376.7.84v1.32c0 .464-.313.84-.7.84H8.7c-.387 0-.7-.376-.7-.84v-1.32c0-.464.313-.84.7-.84zm-17.8 0a1.5 1.5 0 1 1 0 3 1.5 1.5 0 0 1 0-3zM21.3 4c.387 0 .7.376.7.84v1.32c0 .464-.313.84-.7.84H8.7c-.387 0-.7-.376-.7-.84V4.84c0-.464.313-.84.7-.84zM3.5 4a1.5 1.5 0 1 1 0 3 1.5 1.5 0 0 1 0-3z"/>
</svg>
