<svg xmlns="http://www.w3.org/2000/svg" width="24" height="24" viewBox="0 0 24 24">
  <g fillRule="evenodd">
    <path fillRule="evenodd" d="M19.34 4.132l.05.05 2.482 2.931a.547.547 0 0 1-.049.755.508.508 0 0 1-.34.132H20v11.5a.5.5 0 0 1-.5.5h-1a.5.5 0 0 1-.5-.5V8h-1.482A.526.526 0 0 1 16 7.465c0-.13.046-.254.128-.352l2.482-2.93a.506.506 0 0 1 .73-.05z"/>
    <path fillRule="evenodd" d="M13.5 4a.5.5 0 0 1 .5.5v3a.5.5 0 0 1-.5.5H12a.5.5 0 0 1-.5-.5v-1H9.25v11h1.25a.5.5 0 0 1 .5.5v1.5a.5.5 0 0 1-.5.5h-5a.5.5 0 0 1-.5-.5V18a.5.5 0 0 1 .5-.5h1.25v-11H4.5v1A.5.5 0 0 1 4 8H2.5a.5.5 0 0 1-.5-.5v-3a.5.5 0 0 1 .5-.5h11z"/>
  </g>
</svg>
